# xmcd
# 
# Track frame offsets:
#     150
#     12672
#     28220
#     42995
#     58877
#     72210
#     84795
#     100795
#     112375
#     126217
#     139105
#     152797
#     164337
#     175890
# 
# Disc length: 2512
# 
# Revision: 3
# Processed by: cddbd v1.5.2PL0 Copyright (c) Steve Scherf et al.
# Submitted via: fre:ac v1.0.17
# 
DISCID=c509ce0e
DTITLE=Os Monarcas - No Tranco dos Monarcas
DYEAR=0
DGENRE=
TTITLE0=Bem-Me-Quer
TTITLE1=Os de Bota e Bombacha
TTITLE2=Cantar Estradeiro
TTITLE3=Coisa Irritante
TTITLE4=Depois da Farra
TTITLE5=No Tranco dos Monarcas
TTITLE6=Saudade
TTITLE7=Meu Cusco
TTITLE8=Minha Maneira
TTITLE9=Faculdade Gaudéria
TTITLE10=Dois Dedos de Prosa
TTITLE11=Dona da Sala
TTITLE12=Quem é da Lida
TTITLE13=No Lombo de um Tordilho
EXTD=
EXTT0=
EXTT1=
EXTT2=
EXTT3=
EXTT4=
EXTT5=
EXTT6=
EXTT7=
EXTT8=
EXTT9=
EXTT10=
EXTT11=
EXTT12=
EXTT13=
PLAYORDER=
